<?xml version="1.0" encoding="utf-8"?>
<!-- Generator: Adobe Illustrator 21.0.0, SVG Export Plug-In . SVG Version: 6.00 Build 0)  -->
<svg version="1.1" id="Слой_1" xmlns="http://www.w3.org/2000/svg" xmlns:xlink="http://www.w3.org/1999/xlink" x="0px" y="0px"
	 viewBox="0 0 102.8 67.5" style="enable-background:new 0 0 102.8 67.5;" xml:space="preserve">
<style type="text/css">
	.st0{enable-background:new    ;}
	.st1{fill:#5D5D5D;}
	.st2{fill:none;stroke:#5D5D5D;stroke-miterlimit:10;}
</style>
<g class="st0">
	<path class="st1" d="M56.5,62.6c0.3,0.7,0.4,1.3,0.4,1.7c0,0.4-0.1,0.8-0.4,1c-0.3,0.2-0.7,0.4-1.3,0.4c-0.6,0.1-1.4,0.1-2.4,0.1
		c-1,0-1.8,0-2.4-0.1c-0.6-0.1-1.1-0.1-1.4-0.2c-0.3-0.1-0.5-0.3-0.7-0.5c-0.1-0.2-0.3-0.4-0.4-0.7L42.4,49H16l-5.2,15.3
		c-0.1,0.3-0.2,0.6-0.4,0.8c-0.2,0.2-0.4,0.4-0.7,0.5c-0.3,0.1-0.8,0.3-1.3,0.3c-0.6,0.1-1.3,0.1-2.2,0.1c-0.9,0-1.7,0-2.3-0.1
		c-0.6-0.1-1-0.2-1.3-0.5c-0.2-0.2-0.4-0.6-0.3-1c0-0.4,0.2-1,0.4-1.7l21.3-59c0.1-0.4,0.3-0.7,0.5-0.9c0.2-0.2,0.5-0.4,0.9-0.5
		c0.4-0.1,0.9-0.2,1.6-0.3c0.6,0,1.4-0.1,2.4-0.1c1,0,1.9,0,2.6,0.1c0.7,0.1,1.2,0.1,1.7,0.3c0.4,0.1,0.8,0.3,1,0.6
		C34.8,3,35,3.3,35.2,3.7L56.5,62.6z M29.1,10.6L29.1,10.6l-11,31.7h22.1L29.1,10.6z"/>
	<path class="st1" d="M101.2,47.8c0,3-0.5,5.6-1.6,7.9c-1.1,2.3-2.6,4.3-4.6,5.9c-1.9,1.6-4.2,2.8-6.9,3.7c-2.6,0.8-5.5,1.2-8.5,1.2
		c-2.1,0-4.1-0.2-5.9-0.5c-1.8-0.4-3.4-0.8-4.9-1.3c-1.4-0.5-2.6-1.1-3.6-1.6c-1-0.6-1.6-1-2-1.4s-0.7-0.9-0.8-1.5
		c-0.2-0.6-0.3-1.4-0.3-2.4c0-0.7,0-1.3,0.1-1.8s0.2-0.9,0.3-1.2c0.1-0.3,0.3-0.5,0.5-0.6s0.4-0.2,0.7-0.2c0.5,0,1.1,0.3,1.9,0.8
		c0.8,0.6,1.9,1.2,3.2,1.8c1.3,0.7,2.9,1.3,4.7,1.8c1.8,0.6,4,0.9,6.4,0.9c1.8,0,3.5-0.2,5-0.7c1.5-0.5,2.8-1.2,3.9-2.1
		c1.1-0.9,1.9-2,2.5-3.3c0.6-1.3,0.9-2.8,0.9-4.5c0-1.8-0.4-3.3-1.2-4.6c-0.8-1.3-1.9-2.4-3.2-3.4c-1.3-1-2.9-1.8-4.6-2.7
		c-1.7-0.8-3.5-1.6-5.3-2.5c-1.8-0.8-3.5-1.8-5.2-2.8c-1.7-1-3.2-2.2-4.6-3.6c-1.3-1.4-2.4-3-3.3-4.8c-0.8-1.8-1.3-4.1-1.3-6.6
		c0-2.7,0.5-5,1.5-7.1c1-2.1,2.3-3.8,4-5.2c1.7-1.4,3.8-2.5,6.1-3.2c2.4-0.7,4.9-1.1,7.7-1.1c1.4,0,2.8,0.1,4.2,0.4
		c1.4,0.2,2.8,0.6,4,1c1.3,0.4,2.4,0.9,3.4,1.4s1.6,0.9,1.9,1.2c0.3,0.3,0.5,0.6,0.6,0.7c0.1,0.2,0.2,0.4,0.2,0.7
		c0.1,0.3,0.1,0.6,0.1,1c0,0.4,0.1,0.9,0.1,1.5c0,0.6,0,1.1-0.1,1.6c-0.1,0.5-0.1,0.8-0.2,1.2c-0.1,0.3-0.2,0.5-0.4,0.7
		c-0.2,0.1-0.4,0.2-0.6,0.2c-0.4,0-0.9-0.2-1.7-0.7c-0.8-0.5-1.7-1-2.8-1.5s-2.4-1.1-3.9-1.6c-1.5-0.5-3.2-0.7-5.1-0.7
		c-1.8,0-3.3,0.2-4.6,0.7c-1.3,0.5-2.4,1.1-3.2,1.9c-0.9,0.8-1.5,1.7-1.9,2.8s-0.6,2.2-0.6,3.4c0,1.8,0.4,3.3,1.2,4.6
		c0.8,1.3,1.9,2.4,3.3,3.4c1.4,1,2.9,1.9,4.6,2.7c1.7,0.8,3.5,1.6,5.3,2.5c1.8,0.8,3.6,1.8,5.3,2.7c1.7,1,3.3,2.2,4.6,3.5
		c1.4,1.4,2.5,3,3.3,4.8C100.8,43.1,101.2,45.3,101.2,47.8z"/>
</g>
<g class="st0">
	<path class="st2" d="M56.5,62.6c0.3,0.7,0.4,1.3,0.4,1.7c0,0.4-0.1,0.8-0.4,1c-0.3,0.2-0.7,0.4-1.3,0.4c-0.6,0.1-1.4,0.1-2.4,0.1
		c-1,0-1.8,0-2.4-0.1c-0.6-0.1-1.1-0.1-1.4-0.2c-0.3-0.1-0.5-0.3-0.7-0.5c-0.1-0.2-0.3-0.4-0.4-0.7L42.4,49H16l-5.2,15.3
		c-0.1,0.3-0.2,0.6-0.4,0.8c-0.2,0.2-0.4,0.4-0.7,0.5c-0.3,0.1-0.8,0.3-1.3,0.3c-0.6,0.1-1.3,0.1-2.2,0.1c-0.9,0-1.7,0-2.3-0.1
		c-0.6-0.1-1-0.2-1.3-0.5c-0.2-0.2-0.4-0.6-0.3-1c0-0.4,0.2-1,0.4-1.7l21.3-59c0.1-0.4,0.3-0.7,0.5-0.9c0.2-0.2,0.5-0.4,0.9-0.5
		c0.4-0.1,0.9-0.2,1.6-0.3c0.6,0,1.4-0.1,2.4-0.1c1,0,1.9,0,2.6,0.1c0.7,0.1,1.2,0.1,1.7,0.3c0.4,0.1,0.8,0.3,1,0.6
		C34.8,3,35,3.3,35.2,3.7L56.5,62.6z M29.1,10.6L29.1,10.6l-11,31.7h22.1L29.1,10.6z"/>
	<path class="st2" d="M101.2,47.8c0,3-0.5,5.6-1.6,7.9c-1.1,2.3-2.6,4.3-4.6,5.9c-1.9,1.6-4.2,2.8-6.9,3.7c-2.6,0.8-5.5,1.2-8.5,1.2
		c-2.1,0-4.1-0.2-5.9-0.5c-1.8-0.4-3.4-0.8-4.9-1.3c-1.4-0.5-2.6-1.1-3.6-1.6c-1-0.6-1.6-1-2-1.4s-0.7-0.9-0.8-1.5
		c-0.2-0.6-0.3-1.4-0.3-2.4c0-0.7,0-1.3,0.1-1.8s0.2-0.9,0.3-1.2c0.1-0.3,0.3-0.5,0.5-0.6s0.4-0.2,0.7-0.2c0.5,0,1.1,0.3,1.9,0.8
		c0.8,0.6,1.9,1.2,3.2,1.8c1.3,0.7,2.9,1.3,4.7,1.8c1.8,0.6,4,0.9,6.4,0.9c1.8,0,3.5-0.2,5-0.7c1.5-0.5,2.8-1.2,3.9-2.1
		c1.1-0.9,1.9-2,2.5-3.3c0.6-1.3,0.9-2.8,0.9-4.5c0-1.8-0.4-3.3-1.2-4.6c-0.8-1.3-1.9-2.4-3.2-3.4c-1.3-1-2.9-1.8-4.6-2.7
		c-1.7-0.8-3.5-1.6-5.3-2.5c-1.8-0.8-3.5-1.8-5.2-2.8c-1.7-1-3.2-2.2-4.6-3.6c-1.3-1.4-2.4-3-3.3-4.8c-0.8-1.8-1.3-4.1-1.3-6.6
		c0-2.7,0.5-5,1.5-7.1c1-2.1,2.3-3.8,4-5.2c1.7-1.4,3.8-2.5,6.1-3.2c2.4-0.7,4.9-1.1,7.7-1.1c1.4,0,2.8,0.1,4.2,0.4
		c1.4,0.2,2.8,0.6,4,1c1.3,0.4,2.4,0.9,3.4,1.4s1.6,0.9,1.9,1.2c0.3,0.3,0.5,0.6,0.6,0.7c0.1,0.2,0.2,0.4,0.2,0.7
		c0.1,0.3,0.1,0.6,0.1,1c0,0.4,0.1,0.9,0.1,1.5c0,0.6,0,1.1-0.1,1.6c-0.1,0.5-0.1,0.8-0.2,1.2c-0.1,0.3-0.2,0.5-0.4,0.7
		c-0.2,0.1-0.4,0.2-0.6,0.2c-0.4,0-0.9-0.2-1.7-0.7c-0.8-0.5-1.7-1-2.8-1.5s-2.4-1.1-3.9-1.6c-1.5-0.5-3.2-0.7-5.1-0.7
		c-1.8,0-3.3,0.2-4.6,0.7c-1.3,0.5-2.4,1.1-3.2,1.9c-0.9,0.8-1.5,1.7-1.9,2.8s-0.6,2.2-0.6,3.4c0,1.8,0.4,3.3,1.2,4.6
		c0.8,1.3,1.9,2.4,3.3,3.4c1.4,1,2.9,1.9,4.6,2.7c1.7,0.8,3.5,1.6,5.3,2.5c1.8,0.8,3.6,1.8,5.3,2.7c1.7,1,3.3,2.2,4.6,3.5
		c1.4,1.4,2.5,3,3.3,4.8C100.8,43.1,101.2,45.3,101.2,47.8z"/>
</g>
</svg>
