<svg style="display:none;" xmlns="http://www.w3.org/2000/svg" xmlns:xlink="http://www.w3.org/1999/xlink">
    <symbol id="fb" viewBox="0 0 115 114">
        <path d="M57.5,1c-30.9,0-56,25.1-56,56c0,30.9,25.1,56,56,56c30.9,0,56-25.1,56-56C113.5,26.1,88.4,1,57.5,1z M90.2,79
        c-0.4,2.5-4.6,2-8.2,2.2c-3.4,0.1-6.7-0.1-8.2-0.7c-2.5-1-9-9.7-10.8-9.3c-3.8,0.7-2.4,8.8-3.6,9.3c-1.6,0.8-6.9,0.6-9,0.4
        c-10.8-1.8-17-9-22.9-18.3C20.3,51.2,16,42.8,17.8,41.8c2-1.1,7.6-0.9,13.3-0.7c1.7,0,6.6,12.3,7.9,14.3c5.1,8.2,6.7,2.1,6.8,1.4
        c1.4-14.7-2.2-14.1-4.3-14.3C43,37.7,54,38.5,54,38.5s3.7,0.9,5,1.8c0.6,0.4,1.2,1.6,1.1,5.4c-0.2,5.7-0.7,13.6,1.8,13.6
        c1.9,0,5-4.6,7.5-9.3c2.2-4.2,3.9-8.3,4.7-8.6c0.8-0.3,4.3-0.3,7.9-0.4c3.5,0,7,0,7.9,0.7c1.8,1.5-1.4,6.6-4.3,10.7
        c-2.4,3.4-7.1,7.9-6.8,10.4C79.1,66.3,91.1,73.5,90.2,79z"/>
    </symbol>
    <symbol id="logo" viewBox="0 0 102.8 67.5">
        <path d="M56.5,62.6c0.3,0.7,0.4,1.3,0.4,1.7c0,0.4-0.1,0.8-0.4,1c-0.3,0.2-0.7,0.4-1.3,0.4c-0.6,0.1-1.4,0.1-2.4,0.1
        c-1,0-1.8,0-2.4-0.1c-0.6-0.1-1.1-0.1-1.4-0.2c-0.3-0.1-0.5-0.3-0.7-0.5c-0.1-0.2-0.3-0.4-0.4-0.7L42.4,49H16l-5.2,15.3
        c-0.1,0.3-0.2,0.6-0.4,0.8c-0.2,0.2-0.4,0.4-0.7,0.5c-0.3,0.1-0.8,0.3-1.3,0.3c-0.6,0.1-1.3,0.1-2.2,0.1c-0.9,0-1.7,0-2.3-0.1
        c-0.6-0.1-1-0.2-1.3-0.5c-0.2-0.2-0.4-0.6-0.3-1c0-0.4,0.2-1,0.4-1.7l21.3-59c0.1-0.4,0.3-0.7,0.5-0.9c0.2-0.2,0.5-0.4,0.9-0.5
        c0.4-0.1,0.9-0.2,1.6-0.3c0.6,0,1.4-0.1,2.4-0.1c1,0,1.9,0,2.6,0.1c0.7,0.1,1.2,0.1,1.7,0.3c0.4,0.1,0.8,0.3,1,0.6
        C34.8,3,35,3.3,35.2,3.7L56.5,62.6z M29.1,10.6L29.1,10.6l-11,31.7h22.1L29.1,10.6z"/>
        <path d="M101.2,47.8c0,3-0.5,5.6-1.6,7.9c-1.1,2.3-2.6,4.3-4.6,5.9c-1.9,1.6-4.2,2.8-6.9,3.7c-2.6,0.8-5.5,1.2-8.5,1.2
        c-2.1,0-4.1-0.2-5.9-0.5c-1.8-0.4-3.4-0.8-4.9-1.3c-1.4-0.5-2.6-1.1-3.6-1.6c-1-0.6-1.6-1-2-1.4s-0.7-0.9-0.8-1.5
        c-0.2-0.6-0.3-1.4-0.3-2.4c0-0.7,0-1.3,0.1-1.8s0.2-0.9,0.3-1.2c0.1-0.3,0.3-0.5,0.5-0.6s0.4-0.2,0.7-0.2c0.5,0,1.1,0.3,1.9,0.8
        c0.8,0.6,1.9,1.2,3.2,1.8c1.3,0.7,2.9,1.3,4.7,1.8c1.8,0.6,4,0.9,6.4,0.9c1.8,0,3.5-0.2,5-0.7c1.5-0.5,2.8-1.2,3.9-2.1
        c1.1-0.9,1.9-2,2.5-3.3c0.6-1.3,0.9-2.8,0.9-4.5c0-1.8-0.4-3.3-1.2-4.6c-0.8-1.3-1.9-2.4-3.2-3.4c-1.3-1-2.9-1.8-4.6-2.7
        c-1.7-0.8-3.5-1.6-5.3-2.5c-1.8-0.8-3.5-1.8-5.2-2.8c-1.7-1-3.2-2.2-4.6-3.6c-1.3-1.4-2.4-3-3.3-4.8c-0.8-1.8-1.3-4.1-1.3-6.6
        c0-2.7,0.5-5,1.5-7.1c1-2.1,2.3-3.8,4-5.2c1.7-1.4,3.8-2.5,6.1-3.2c2.4-0.7,4.9-1.1,7.7-1.1c1.4,0,2.8,0.1,4.2,0.4
        c1.4,0.2,2.8,0.6,4,1c1.3,0.4,2.4,0.9,3.4,1.4s1.6,0.9,1.9,1.2c0.3,0.3,0.5,0.6,0.6,0.7c0.1,0.2,0.2,0.4,0.2,0.7
        c0.1,0.3,0.1,0.6,0.1,1c0,0.4,0.1,0.9,0.1,1.5c0,0.6,0,1.1-0.1,1.6c-0.1,0.5-0.1,0.8-0.2,1.2c-0.1,0.3-0.2,0.5-0.4,0.7
        c-0.2,0.1-0.4,0.2-0.6,0.2c-0.4,0-0.9-0.2-1.7-0.7c-0.8-0.5-1.7-1-2.8-1.5s-2.4-1.1-3.9-1.6c-1.5-0.5-3.2-0.7-5.1-0.7
        c-1.8,0-3.3,0.2-4.6,0.7c-1.3,0.5-2.4,1.1-3.2,1.9c-0.9,0.8-1.5,1.7-1.9,2.8s-0.6,2.2-0.6,3.4c0,1.8,0.4,3.3,1.2,4.6
        c0.8,1.3,1.9,2.4,3.3,3.4c1.4,1,2.9,1.9,4.6,2.7c1.7,0.8,3.5,1.6,5.3,2.5c1.8,0.8,3.6,1.8,5.3,2.7c1.7,1,3.3,2.2,4.6,3.5
        c1.4,1.4,2.5,3,3.3,4.8C100.8,43.1,101.2,45.3,101.2,47.8z"/>

        <path d="M56.5,62.6c0.3,0.7,0.4,1.3,0.4,1.7c0,0.4-0.1,0.8-0.4,1c-0.3,0.2-0.7,0.4-1.3,0.4c-0.6,0.1-1.4,0.1-2.4,0.1
        c-1,0-1.8,0-2.4-0.1c-0.6-0.1-1.1-0.1-1.4-0.2c-0.3-0.1-0.5-0.3-0.7-0.5c-0.1-0.2-0.3-0.4-0.4-0.7L42.4,49H16l-5.2,15.3
        c-0.1,0.3-0.2,0.6-0.4,0.8c-0.2,0.2-0.4,0.4-0.7,0.5c-0.3,0.1-0.8,0.3-1.3,0.3c-0.6,0.1-1.3,0.1-2.2,0.1c-0.9,0-1.7,0-2.3-0.1
        c-0.6-0.1-1-0.2-1.3-0.5c-0.2-0.2-0.4-0.6-0.3-1c0-0.4,0.2-1,0.4-1.7l21.3-59c0.1-0.4,0.3-0.7,0.5-0.9c0.2-0.2,0.5-0.4,0.9-0.5
        c0.4-0.1,0.9-0.2,1.6-0.3c0.6,0,1.4-0.1,2.4-0.1c1,0,1.9,0,2.6,0.1c0.7,0.1,1.2,0.1,1.7,0.3c0.4,0.1,0.8,0.3,1,0.6
        C34.8,3,35,3.3,35.2,3.7L56.5,62.6z M29.1,10.6L29.1,10.6l-11,31.7h22.1L29.1,10.6z"/>
        <path d="M101.2,47.8c0,3-0.5,5.6-1.6,7.9c-1.1,2.3-2.6,4.3-4.6,5.9c-1.9,1.6-4.2,2.8-6.9,3.7c-2.6,0.8-5.5,1.2-8.5,1.2
        c-2.1,0-4.1-0.2-5.9-0.5c-1.8-0.4-3.4-0.8-4.9-1.3c-1.4-0.5-2.6-1.1-3.6-1.6c-1-0.6-1.6-1-2-1.4s-0.7-0.9-0.8-1.5
        c-0.2-0.6-0.3-1.4-0.3-2.4c0-0.7,0-1.3,0.1-1.8s0.2-0.9,0.3-1.2c0.1-0.3,0.3-0.5,0.5-0.6s0.4-0.2,0.7-0.2c0.5,0,1.1,0.3,1.9,0.8	c0.8,0.6,1.9,1.2,3.2,1.8c1.3,0.7,2.9,1.3,4.7,1.8c1.8,0.6,4,0.9,6.4,0.9c1.8,0,3.5-0.2,5-0.7c1.5-0.5,2.8-1.2,3.9-2.1
        c1.1-0.9,1.9-2,2.5-3.3c0.6-1.3,0.9-2.8,0.9-4.5c0-1.8-0.4-3.3-1.2-4.6c-0.8-1.3-1.9-2.4-3.2-3.4c-1.3-1-2.9-1.8-4.6-2.7
        c-1.7-0.8-3.5-1.6-5.3-2.5c-1.8-0.8-3.5-1.8-5.2-2.8c-1.7-1-3.2-2.2-4.6-3.6c-1.3-1.4-2.4-3-3.3-4.8c-0.8-1.8-1.3-4.1-1.3-6.6
        c0-2.7,0.5-5,1.5-7.1c1-2.1,2.3-3.8,4-5.2c1.7-1.4,3.8-2.5,6.1-3.2c2.4-0.7,4.9-1.1,7.7-1.1c1.4,0,2.8,0.1,4.2,0.4	c1.4,0.2,2.8,0.6,4,1c1.3,0.4,2.4,0.9,3.4,1.4s1.6,0.9,1.9,1.2c0.3,0.3,0.5,0.6,0.6,0.7c0.1,0.2,0.2,0.4,0.2,0.7
        c0.1,0.3,0.1,0.6,0.1,1c0,0.4,0.1,0.9,0.1,1.5c0,0.6,0,1.1-0.1,1.6c-0.1,0.5-0.1,0.8-0.2,1.2c-0.1,0.3-0.2,0.5-0.4,0.7
        c-0.2,0.1-0.4,0.2-0.6,0.2c-0.4,0-0.9-0.2-1.7-0.7c-0.8-0.5-1.7-1-2.8-1.5s-2.4-1.1-3.9-1.6c-1.5-0.5-3.2-0.7-5.1-0.7
        c-1.8,0-3.3,0.2-4.6,0.7c-1.3,0.5-2.4,1.1-3.2,1.9c-0.9,0.8-1.5,1.7-1.9,2.8s-0.6,2.2-0.6,3.4c0,1.8,0.4,3.3,1.2,4.6	c0.8,1.3,1.9,2.4,3.3,3.4c1.4,1,2.9,1.9,4.6,2.7c1.7,0.8,3.5,1.6,5.3,2.5c1.8,0.8,3.6,1.8,5.3,2.7c1.7,1,3.3,2.2,4.6,3.5
        c1.4,1.4,2.5,3,3.3,4.8C100.8,43.1,101.2,45.3,101.2,47.8z"/>
    </symbol>
    <symbol id="skype" viewBox="0 0 115 115">
        <path d="M71.8,55.2c-1.5-1-3.3-1.8-5.4-2.4c-2.1-0.7-4.4-1.3-7-1.8c-1.7-0.4-2.9-0.7-3.8-0.9C55.3,50,55.1,50,55,49.9
		c-0.9-0.2-1.7-0.6-2.5-1c-0.8-0.4-1.4-0.9-1.9-1.4c-0.4-0.5-0.6-1.1-0.6-1.8c0-1.2,0.6-2.1,2-3c1.4-0.9,3.2-1.3,5.5-1.3
		c2.4,0,4.2,0.4,5.3,1.2c1.1,0.8,2,2,2.8,3.5c0.7,1.2,1.3,2,1.9,2.5c0.6,0.6,1.6,0.8,2.7,0.8c1.3,0,2.4-0.4,3.3-1.3
		c0.9-0.9,1.3-1.9,1.3-3c0-1.2-0.3-2.4-1-3.6c-0.6-1.2-1.7-2.3-3.1-3.4c-1.4-1.1-3.1-1.9-5.2-2.6c-2.1-0.6-4.6-1-7.4-1
		c-3.5,0-6.7,0.5-9.3,1.4c-2.7,1-4.7,2.4-6.1,4.2c-1.4,1.8-2.2,4-2.2,6.3c0,1.7,0.3,3.2,1,4.5c0.3,0.6,0.7,1.2,1.1,1.8
		c1.3,1.6,3.2,3,5.4,3.9c2.2,0.9,5,1.8,8.3,2.4c2.4,0.5,4.4,1,5.8,1.4c1.4,0.4,2.5,1,3.4,1.8c0.8,0.8,1.2,1.7,1.2,3
		c0,1.6-0.8,2.8-2.3,3.9c-1.6,1.1-3.8,1.6-6.4,1.6c-1.9,0-3.4-0.3-4.6-0.8c-1.1-0.5-2-1.2-2.7-2c-0.6-0.8-1.3-1.9-1.8-3.2
		c-0.5-1.2-1.1-2.1-1.9-2.7c-0.8-0.6-1.7-1-2.8-1c-1.3,0-2.4,0.4-3.3,1.2c-0.9,0.8-1.3,1.8-1.3,2.9c0,1.8,0.7,3.7,2,5.6
		c1.3,1.9,3.1,3.4,5.2,4.6c3,1.6,6.8,2.3,11.3,2.3c3.8,0,7.1-0.6,9.9-1.7c2.8-1.1,5-2.8,6.4-4.8c1.5-2,2.2-4.4,2.2-7
		c0-2.1-0.4-4-1.3-5.5C74.5,57.4,73.3,56.2,71.8,55.2z"/>
	<path d="M57.5,1.6c-30.9,0-56,25.1-56,56c0,30.9,25.1,56,56,56c30.9,0,56-25.1,56-56C113.5,26.6,88.4,1.6,57.5,1.6z
		 M72.6,89.3c-3.1,0-6.1-0.8-8.7-2.1c-1.9,0.3-3.8,0.5-5.8,0.5c-17.5,0-31.6-14-31.6-31.2c0-1,0-1.9,0.1-2.8
		c0.1-1.2,0.3-2.3,0.5-3.4c-1.6-2.7-2.5-5.8-2.5-9.2c0-10,8.2-18.1,18.4-18.1c3.6,0,6.9,1,9.8,2.8c1.8-0.3,3.6-0.5,5.4-0.5
		c16.7,0,30.3,12.7,31.6,28.8c0.1,0.8,0.1,1.6,0.1,2.4c0,2.3-0.2,4.5-0.7,6.7c1.2,2.4,1.9,5.1,1.9,8C91,81.2,82.8,89.3,72.6,89.3z"
		/>
    </symbol>
    <symbol id="linin" viewBox="0 0 115 115">
        <path d="M57.3,1.8c-30.9,0-56,25.1-56,56c0,30.9,25.1,56,56,56c30.9,0,56-25.1,56-56C113.3,26.8,88.2,1.8,57.3,1.8z
        M41,53v35.1H25.5V55.6V43.9H41V53z M33.3,37.2c-4.3,0-7.7-3.5-7.7-7.7c0-4.3,3.5-7.7,7.7-7.7c4.3,0,7.7,3.5,7.7,7.7
        C41,33.8,37.5,37.2,33.3,37.2z M91.9,63.8v24.3H78.6V66.6c0-5.1-0.6-11.8-7.6-11.8c-7.2,0-8.2,5.6-8.2,11.4v21.9H49.8V52.4v-8.5
        h12.3v6h0.2c1.8-3.5,6.3-6,13-6c11.3,0,15.1,5.2,16.2,13.6C91.8,59.4,91.9,61.5,91.9,63.8L91.9,63.8z"/>
    </symbol>

</svg>